<svg id="visual" viewBox="0 0 300 300" width="300" height="300" xmlns="http://www.w3.org/2000/svg" xmlns:xlink="http://www.w3.org/1999/xlink" version="1.1"><path d="M0 133L12.5 127C25 121 50 109 75 102.5C100 96 125 95 150 103C175 111 200 128 225 129.5C250 131 275 117 287.5 110L300 103L300 0L287.5 0C275 0 250 0 225 0C200 0 175 0 150 0C125 0 100 0 75 0C50 0 25 0 12.5 0L0 0Z" fill="#f09765"></path><path d="M0 202L12.5 193.5C25 185 50 168 75 161C100 154 125 157 150 167.5C175 178 200 196 225 200C250 204 275 194 287.5 189L300 184L300 101L287.5 108C275 115 250 129 225 127.5C200 126 175 109 150 101C125 93 100 94 75 100.5C50 107 25 119 12.5 125L0 131Z" fill="#ffbc95"></path><path d="M0 301L12.5 301C25 301 50 301 75 301C100 301 125 301 150 301C175 301 200 301 225 301C250 301 275 301 287.5 301L300 301L300 182L287.5 187C275 192 250 202 225 198C200 194 175 176 150 165.5C125 155 100 152 75 159C50 166 25 183 12.5 191.5L0 200Z" fill="#ffd2b5"></path></svg>