<svg id="visual" viewBox="0 0 300 300" width="300" height="300" xmlns="http://www.w3.org/2000/svg" xmlns:xlink="http://www.w3.org/1999/xlink" version="1.1"><path d="M0 58L12.5 58.5C25 59 50 60 75 65.5C100 71 125 81 150 79.5C175 78 200 65 225 62C250 59 275 66 287.5 69.5L300 73L300 0L287.5 0C275 0 250 0 225 0C200 0 175 0 150 0C125 0 100 0 75 0C50 0 25 0 12.5 0L0 0Z" fill="#e3a0fb"></path><path d="M0 202L12.5 203C25 204 50 206 75 203.5C100 201 125 194 150 186.5C175 179 200 171 225 177C250 183 275 203 287.5 213L300 223L300 71L287.5 67.5C275 64 250 57 225 60C200 63 175 76 150 77.5C125 79 100 69 75 63.5C50 58 25 57 12.5 56.5L0 56Z" fill="#ebbbfc"></path><path d="M0 301L12.5 301C25 301 50 301 75 301C100 301 125 301 150 301C175 301 200 301 225 301C250 301 275 301 287.5 301L300 301L300 221L287.5 211C275 201 250 181 225 175C200 169 175 177 150 184.5C125 192 100 199 75 201.5C50 204 25 202 12.5 201L0 200Z" fill="#efd2ff"></path></svg>