<svg id="visual" viewBox="0 0 300 300" width="300" height="300" xmlns="http://www.w3.org/2000/svg" xmlns:xlink="http://www.w3.org/1999/xlink" version="1.1"><path d="M0 94L12.5 94.5C25 95 50 96 75 104C100 112 125 127 150 127C175 127 200 112 225 107C250 102 275 107 287.5 109.5L300 112L300 0L287.5 0C275 0 250 0 225 0C200 0 175 0 150 0C125 0 100 0 75 0C50 0 25 0 12.5 0L0 0Z" fill="#ae9ffd"></path><path d="M0 214L12.5 213C25 212 50 210 75 214C100 218 125 228 150 231C175 234 200 230 225 226.5C250 223 275 220 287.5 218.5L300 217L300 110L287.5 107.5C275 105 250 100 225 105C200 110 175 125 150 125C125 125 100 110 75 102C50 94 25 93 12.5 92.5L0 92Z" fill="#c5bbfd"></path><path d="M0 301L12.5 301C25 301 50 301 75 301C100 301 125 301 150 301C175 301 200 301 225 301C250 301 275 301 287.5 301L300 301L300 215L287.5 216.5C275 218 250 221 225 224.5C200 228 175 232 150 229C125 226 100 216 75 212C50 208 25 210 12.5 211L0 212Z" fill="#d6d1ff"></path></svg>